<svg width="149" height="24" viewBox="0 0 149 24" fill="none" xmlns="http://www.w3.org/2000/svg">
<path d="M0.651016 0.635998H5.40302L11.055 20.256H9.97502L15.555 2.184H18.435L24.231 19.968H23.259L29.199 0.635998H33.987L25.959 24H21.495L16.923 10.212H17.319L12.747 24H8.28302L0.651016 0.635998Z" fill="#096DD9"/>
<path d="M35.1494 24L43.1054 0.635998H48.4334L56.0654 24H51.6014L49.9814 18.96H41.3054L39.6494 24H35.1494ZM42.3854 15.756H48.9734L45.6974 5.712L42.3854 15.756ZM60.2406 24V0.635998H68.8806C71.6766 0.635998 73.8186 1.29 75.3066 2.598C76.8066 3.906 77.5566 5.64 77.5566 7.8C77.5566 9.924 76.8066 11.64 75.3066 12.948C73.8186 14.244 71.6766 14.892 68.8806 14.892H64.4886V24H60.2406ZM72.8766 24L66.6846 13.056H71.2206L78.4206 24H72.8766ZM64.4886 12.048H68.4486C70.0086 12.048 71.1906 11.694 71.9946 10.986C72.7986 10.266 73.2006 9.336 73.2006 8.196C73.2006 7.032 72.8346 6.096 72.1026 5.388C71.3706 4.668 70.2966 4.308 68.8806 4.308H64.4886V12.048ZM83.4085 0.635998H90.9685C93.3445 0.635998 95.4265 1.116 97.2145 2.076C99.0025 3.024 100.395 4.374 101.391 6.126C102.387 7.878 102.885 9.948 102.885 12.336C102.885 14.7 102.387 16.758 101.391 18.51C100.395 20.25 99.0025 21.6 97.2145 22.56C95.4265 23.52 93.3445 24 90.9685 24H83.4085V0.635998ZM87.6565 4.488V20.184H90.9685C92.4805 20.184 93.7825 19.842 94.8745 19.158C95.9785 18.474 96.8245 17.544 97.4125 16.368C98.0125 15.18 98.3125 13.836 98.3125 12.336C98.3125 10.812 98.0125 9.462 97.4125 8.286C96.8245 7.11 95.9785 6.186 94.8745 5.514C93.7825 4.83 92.4805 4.488 90.9685 4.488H87.6565ZM108.087 24V0.635998H123.099V4.308H112.335V10.464H122.451V14.136H112.335V20.292H123.099V24H108.087ZM129.18 0.635998H133.824L144.444 17.304H144.12V0.635998H148.368V24H144.048L132.744 6.324H133.428V24H129.18V0.635998Z" fill="black"/>
</svg>
